<?xml version="1.0" standalone="no"?>
<!DOCTYPE svg PUBLIC "-//W3C//DTD SVG 20010904//EN"
 "http://www.w3.org/TR/2001/REC-SVG-20010904/DTD/svg10.dtd">
<svg version="1.0" xmlns="http://www.w3.org/2000/svg"
 width="740.000000pt" height="740.000000pt" viewBox="0 0 740.000000 740.000000"
 preserveAspectRatio="xMidYMid meet">

<g transform="translate(0.000000,740.000000) scale(0.100000,-0.100000)"
fill="#000000" stroke="none">
<path d="M368 7211 c-3 -173 -5 -192 -24 -217 -46 -63 -64 -69 -210 -72 -112
-3 -134 -6 -134 -19 0 -13 18 -14 128 -11 150 4 190 18 237 86 l30 44 3 189
c3 165 2 189 -11 189 -14 0 -16 -27 -19 -189z"/>
<path d="M1147 7382 c-24 -27 -37 -69 -37 -122 0 -64 13 -96 56 -137 34 -32
35 -34 24 -69 -48 -143 121 -253 235 -153 32 28 36 29 57 15 56 -36 142 -32
203 9 l36 25 28 -19 c80 -57 177 -47 250 26 35 34 50 43 68 38 41 -10 114 16
153 55 61 61 73 141 32 227 -15 31 -14 33 16 68 35 39 40 55 17 55 -8 0 -15
-4 -15 -10 0 -5 -16 -25 -36 -45 l-35 -35 23 -33 c31 -44 33 -142 2 -183 -40
-54 -70 -69 -141 -70 -60 -1 -66 -3 -83 -29 -56 -86 -178 -99 -252 -27 l-28
26 -27 -26 c-41 -38 -66 -48 -121 -48 -36 0 -59 7 -86 25 l-37 25 -38 -40
c-34 -36 -43 -40 -85 -40 -41 0 -53 5 -82 34 -28 28 -34 42 -34 76 0 23 8 56
18 72 15 27 15 32 2 36 -8 3 -32 22 -52 43 -61 63 -63 149 -6 214 26 31 28 35
11 35 -11 0 -27 -8 -36 -18z"/>
<path d="M1470 7386 c0 -16 19 -25 38 -19 22 8 13 33 -13 33 -15 0 -25 -6 -25
-14z"/>
<path d="M1612 7388 c7 -20 48 -23 48 -4 0 11 -9 16 -26 16 -16 0 -24 -5 -22
-12z"/>
<path d="M1753 7388 c2 -7 14 -13 27 -13 13 0 25 6 28 13 2 8 -7 12 -28 12
-21 0 -30 -4 -27 -12z"/>
<path d="M1900 7386 c0 -19 25 -27 39 -13 18 18 13 27 -14 27 -15 0 -25 -6
-25 -14z"/>
<path d="M2891 7356 c-69 -142 -10 -301 136 -368 l63 -28 0 -65 c0 -36 4 -65
9 -65 5 0 45 29 88 64 l80 64 334 4 c315 3 337 4 380 24 53 25 110 80 135 132
10 20 20 67 22 104 4 56 0 76 -21 122 -15 33 -32 56 -41 56 -21 0 -20 -7 3
-36 10 -13 25 -47 31 -75 25 -102 -23 -211 -117 -266 l-48 -28 -345 -5 -346
-5 -69 -58 -70 -58 -3 59 -3 60 -45 12 c-60 17 -138 87 -159 145 -26 65 -17
160 18 214 25 38 26 41 8 41 -13 0 -26 -15 -40 -44z"/>
<path d="M2992 7378 c-28 -31 -52 -78 -52 -105 0 -33 17 -28 25 7 8 37 39 77
79 101 l31 19 -31 0 c-19 0 -39 -9 -52 -22z"/>
<path d="M4252 7360 c-12 -22 -34 -47 -47 -56 -27 -18 -33 -34 -12 -34 23 0
107 98 107 124 0 3 -6 6 -12 6 -7 0 -23 -18 -36 -40z"/>
<path d="M4910 7392 c0 -51 62 -487 71 -498 9 -11 57 -14 222 -16 l211 -3 61
-97 c33 -54 65 -98 71 -98 6 0 39 45 74 100 l62 100 208 0 c185 0 209 2 222
18 11 12 24 89 43 255 25 213 27 262 10 245 -3 -3 -17 -95 -30 -204 -14 -110
-27 -218 -31 -241 l-5 -43 -216 -2 -216 -3 -52 -83 c-28 -45 -56 -87 -61 -92
-7 -7 -30 20 -72 85 l-61 95 -211 0 c-159 0 -212 3 -215 13 -3 6 -17 115 -32
241 -19 154 -32 231 -40 234 -7 2 -13 -1 -13 -6z"/>
<path d="M4987 7343 c5 -56 16 -83 28 -71 12 12 -7 128 -21 128 -9 0 -11 -14
-7 -57z"/>
<path d="M6830 7233 l0 -167 -76 -77 c-41 -43 -73 -83 -69 -89 4 -6 128 -10
361 -10 308 0 354 2 354 15 0 13 -44 15 -337 15 l-337 0 67 68 67 68 0 172 c0
146 -2 172 -15 172 -13 0 -15 -25 -15 -167z"/>
<path d="M0 7375 c0 -13 13 -15 85 -13 48 2 85 7 85 13 0 6 -37 11 -85 13 -72
2 -85 0 -85 -13z"/>
<path d="M7057 7384 c-18 -19 20 -24 174 -24 144 0 169 2 169 15 0 13 -25 15
-168 15 -93 0 -172 -3 -175 -6z"/>
<path d="M5310 7295 c-10 -12 -10 -18 0 -29 16 -20 42 -8 38 17 -4 26 -21 32
-38 12z"/>
<path d="M5457 7303 c-12 -12 -7 -41 7 -46 19 -7 40 18 32 38 -6 15 -28 20
-39 8z"/>
<path d="M5600 7294 c-11 -12 -10 -18 3 -32 16 -15 18 -15 34 0 13 14 14 20 3
32 -7 9 -16 16 -20 16 -4 0 -13 -7 -20 -16z"/>
<path d="M5747 7304 c-12 -12 -8 -42 6 -47 21 -8 39 8 35 29 -3 19 -29 30 -41
18z"/>
<path d="M7078 7282 c-16 -2 -28 -8 -28 -13 0 -5 73 -9 175 -9 216 0 238 18
28 22 -82 2 -160 2 -175 0z"/>
<path d="M0 7270 c0 -5 11 -10 25 -10 14 0 25 5 25 10 0 6 -11 10 -25 10 -14
0 -25 -4 -25 -10z"/>
<path d="M3264 7245 c-8 -19 3 -35 26 -35 19 0 30 17 23 38 -6 17 -42 15 -49
-3z"/>
<path d="M3406 7244 c-4 -10 -2 -22 3 -27 15 -15 46 -3 46 18 0 26 -40 33 -49
9z"/>
<path d="M3550 7235 c0 -22 4 -26 23 -23 14 2 22 10 22 23 0 13 -8 21 -22 23
-19 3 -23 -1 -23 -23z"/>
<path d="M3694 7245 c-4 -9 -2 -21 4 -27 15 -15 44 -1 40 19 -4 23 -36 29 -44
8z"/>
<path d="M2176 7205 c5 -33 2 -51 -10 -70 -19 -30 -20 -35 -3 -35 13 0 28 24
41 64 8 23 -11 86 -25 86 -6 0 -8 -18 -3 -45z"/>
<path d="M300 7129 c0 -76 -2 -82 -29 -110 -29 -29 -31 -29 -145 -29 -71 0
-116 -4 -116 -10 0 -6 49 -10 126 -10 125 0 126 0 155 29 28 28 29 33 29 120
0 54 -4 91 -10 91 -6 0 -10 -34 -10 -81z"/>
<path d="M6057 7143 c-2 -4 -8 -43 -12 -85 l-7 -77 -101 -3 c-60 -2 -102 -7
-102 -13 0 -12 205 -19 216 -8 13 14 31 175 21 185 -5 5 -12 6 -15 1z"/>
<path d="M2075 7080 c-3 -6 5 -10 19 -10 14 0 28 5 31 10 3 6 -5 10 -19 10
-14 0 -28 -4 -31 -10z"/>
<path d="M7300 6980 c0 -5 14 -10 30 -10 17 0 30 5 30 10 0 6 -13 10 -30 10
-16 0 -30 -4 -30 -10z"/>
<path d="M5735 6970 c-8 -13 20 -24 41 -16 20 8 9 26 -16 26 -10 0 -22 -5 -25
-10z"/>
<path d="M1110 6877 c-38 -19 -49 -61 -23 -95 29 -39 74 -42 102 -6 26 33 27
55 4 82 -24 27 -53 34 -83 19z m58 -29 c7 -7 12 -22 12 -35 0 -28 -36 -46 -62
-31 -34 17 -16 78 22 78 9 0 21 -5 28 -12z"/>
<path d="M4510 6678 c-19 -5 -47 -19 -63 -30 -27 -19 -29 -19 -64 -3 -55 26
-107 30 -158 11 -47 -19 -101 -72 -111 -110 -4 -19 -14 -25 -47 -30 -102 -16
-172 -93 -171 -191 0 -50 19 -99 49 -129 15 -14 14 -19 -9 -48 -61 -81 -55
-182 15 -252 37 -36 39 -42 29 -69 -15 -45 -12 -88 10 -125 52 -85 168 -96
234 -23 l18 20 41 -20 c58 -30 141 -23 192 15 l36 28 22 -20 c73 -66 215 -47
271 37 15 22 24 26 61 23 122 -10 226 113 194 230 -6 23 -17 51 -24 61 -11 16
-9 22 12 45 77 81 67 208 -21 278 -33 26 -36 34 -36 78 0 71 -35 127 -102 160
-57 28 -83 31 -141 15 -34 -9 -41 -8 -68 15 -29 24 -88 47 -119 45 -8 0 -31
-5 -50 -11z m130 -39 c19 -12 41 -30 48 -40 11 -17 15 -17 49 -2 52 21 123 13
167 -20 42 -32 71 -102 63 -151 -5 -31 -2 -37 33 -61 91 -63 95 -200 8 -267
-20 -15 -21 -20 -10 -35 66 -93 51 -190 -39 -251 -27 -19 -45 -23 -92 -21 -56
2 -60 1 -79 -29 -33 -53 -80 -75 -148 -70 -48 3 -67 10 -98 36 l-39 31 -29
-30 c-53 -56 -147 -61 -206 -11 l-30 25 -25 -32 c-54 -68 -126 -77 -181 -21
-40 40 -47 83 -22 134 21 44 21 46 -26 74 -6 4 -23 25 -38 46 -43 64 -33 142
27 204 l31 32 -22 16 c-12 8 -32 34 -43 56 -56 109 25 238 149 238 36 0 40 3
45 29 8 37 58 95 97 111 42 18 121 8 159 -20 l32 -22 27 25 c53 51 133 62 192
26z"/>
<path d="M4532 6609 c-39 -8 -57 -23 -47 -38 4 -8 13 -7 28 4 26 18 57 19 92
3 27 -12 45 -4 29 12 -17 17 -68 27 -102 19z"/>
<path d="M4018 6423 c-33 -21 -48 -53 -48 -101 0 -43 13 -68 29 -58 8 5 8 13
0 28 -19 35 -2 87 37 110 18 11 31 24 28 29 -7 12 -15 11 -46 -8z"/>
<path d="M4262 6158 c2 -15 10 -23 23 -23 30 0 27 39 -3 43 -20 3 -23 0 -20
-20z"/>
<path d="M4404 6165 c-4 -9 -2 -21 4 -27 15 -15 44 -1 40 19 -4 23 -36 29 -44
8z"/>
<path d="M4543 6164 c-3 -8 -1 -20 5 -26 16 -16 42 -2 42 22 0 24 -38 28 -47
4z"/>
<path d="M4687 6166 c-3 -8 1 -20 9 -27 12 -10 18 -9 31 3 8 9 12 21 9 27 -10
16 -43 14 -49 -3z"/>
<path d="M4966 5971 c5 -29 2 -48 -10 -65 -20 -31 -20 -36 -1 -36 8 0 19 9 25
20 14 27 9 112 -8 118 -9 3 -11 -6 -6 -37z"/>
<path d="M4865 5850 c-8 -12 20 -24 35 -15 5 3 10 10 10 16 0 12 -37 12 -45
-1z"/>
<path d="M540 6543 c-244 -24 -447 -46 -452 -51 -4 -4 6 -108 22 -232 42 -321
32 -287 90 -295 56 -8 57 -11 34 -79 -9 -27 -13 -51 -8 -56 5 -5 56 18 114 50
l105 57 210 -23 c116 -13 224 -25 241 -28 17 -2 36 -1 42 3 9 6 72 573 72 656
0 18 -6 35 -12 37 -7 2 -213 -15 -458 -39z m447 -15 c-3 -18 -18 -163 -33
-323 -15 -159 -28 -291 -29 -293 -2 -2 -112 9 -246 24 l-244 26 -84 -46 c-46
-25 -86 -44 -88 -42 -2 2 1 25 8 50 6 26 9 49 7 52 -3 2 -28 7 -57 11 -28 3
-51 8 -51 11 0 2 -14 110 -31 239 -16 130 -29 236 -27 238 3 2 811 82 857 84
21 1 23 -2 18 -31z"/>
<path d="M225 6443 c-27 -2 -53 -7 -57 -11 -7 -7 16 -201 27 -230 3 -7 9 -11
13 -8 5 3 3 51 -5 107 -7 57 -11 105 -8 107 2 3 27 7 55 10 33 3 50 9 50 18 0
8 -6 13 -12 12 -7 -1 -35 -3 -63 -5z"/>
<path d="M314 6246 c-8 -21 3 -36 27 -36 15 0 20 6 17 22 -4 27 -35 37 -44 14z"/>
<path d="M454 6245 c-8 -20 4 -35 27 -35 14 0 19 7 19 25 0 18 -5 25 -20 25
-11 0 -23 -7 -26 -15z"/>
<path d="M594 6245 c-8 -20 4 -35 26 -35 23 0 32 13 24 34 -8 20 -43 21 -50 1z"/>
<path d="M737 6247 c-8 -21 8 -39 29 -35 27 5 25 42 -2 46 -12 2 -24 -3 -27
-11z"/>
<path d="M6229 6496 l-42 -74 -171 -4 c-148 -3 -175 -6 -199 -22 -51 -35 -61
-68 -65 -217 -4 -156 5 -203 48 -244 l31 -30 435 -3 c424 -3 437 -2 469 18 56
35 65 68 65 243 0 144 -2 156 -23 188 -40 60 -71 69 -252 69 l-160 0 -35 66
c-19 36 -40 70 -46 75 -9 7 -24 -11 -55 -65z m97 -58 l24 -47 181 -3 181 -3
29 -33 29 -32 0 -164 0 -164 -30 -30 c-16 -16 -42 -32 -57 -35 -15 -3 -200 -6
-410 -7 -512 -1 -486 -12 -491 225 -4 166 4 201 51 227 14 9 82 15 197 18
l175 5 34 63 c40 71 40 71 87 -20z"/>
<path d="M5847 6322 c-19 -21 -25 -142 -7 -142 6 0 10 22 10 48 0 74 10 81
119 84 65 2 96 7 99 16 3 9 -22 12 -101 12 -88 0 -106 -3 -120 -18z"/>
<path d="M6042 6181 c-20 -12 -10 -46 13 -46 14 0 20 7 20 24 0 27 -13 35 -33
22z"/>
<path d="M6181 6172 c-12 -23 1 -45 25 -40 23 4 31 37 12 49 -19 13 -26 11
-37 -9z"/>
<path d="M6330 6175 c-17 -20 -5 -45 20 -45 11 0 23 7 26 15 6 15 -11 45 -26
45 -4 0 -13 -7 -20 -15z"/>
<path d="M6480 6175 c-16 -19 -6 -45 19 -45 23 0 35 28 20 46 -15 18 -24 18
-39 -1z"/>
<path d="M2290 6514 c-133 -35 -245 -119 -294 -221 -56 -113 -35 -245 54 -347
l33 -37 -16 -82 c-8 -45 -13 -85 -11 -89 3 -4 45 12 94 37 l89 45 63 -15 c239
-56 501 41 588 218 40 82 47 139 26 212 -22 74 -52 121 -111 173 -94 83 -213
122 -365 121 -52 0 -120 -7 -150 -15z m275 -19 c104 -22 184 -65 248 -134 177
-192 74 -441 -218 -527 -79 -23 -220 -24 -297 -1 l-58 17 -70 -35 c-38 -19
-74 -35 -78 -35 -5 0 -3 32 5 71 l15 71 -35 37 c-116 120 -116 276 0 401 113
123 300 174 488 135z"/>
<path d="M2253 6427 c-72 -30 -136 -78 -173 -128 -34 -47 -37 -59 -15 -59 8 0
15 4 15 9 0 5 21 32 46 60 46 51 134 101 202 116 17 4 32 11 32 16 0 16 -53 9
-107 -14z"/>
<path d="M2211 6177 c-8 -10 -7 -19 4 -33 13 -18 15 -18 31 -2 18 18 13 48 -9
48 -8 0 -20 -6 -26 -13z"/>
<path d="M2357 6184 c-12 -12 -8 -42 6 -47 21 -8 39 8 35 29 -3 19 -29 30 -41
18z"/>
<path d="M2497 6184 c-12 -12 -8 -42 6 -47 21 -8 39 8 35 29 -3 19 -29 30 -41
18z"/>
<path d="M2633 6174 c-3 -8 2 -23 11 -32 15 -15 17 -15 33 0 13 14 14 20 3 32
-16 20 -39 20 -47 0z"/>
<path d="M2960 6242 c0 -6 19 -16 43 -22 120 -30 241 -117 287 -207 21 -39 25
-62 25 -128 -1 -91 -18 -134 -80 -198 l-36 -37 15 -73 c8 -39 13 -73 11 -75
-2 -2 -38 14 -81 36 -77 38 -80 39 -119 25 -65 -23 -190 -27 -275 -9 -109 23
-188 66 -254 136 -30 33 -57 60 -60 60 -21 0 3 -40 52 -88 96 -96 219 -142
377 -142 50 0 115 6 145 14 l54 14 89 -45 c51 -25 93 -41 98 -36 5 5 2 44 -7
91 l-17 82 38 41 c57 64 79 121 79 209 0 58 -6 86 -24 125 -36 75 -117 150
-204 190 -79 37 -156 55 -156 37z"/>
<path d="M1022 6219 c3 -10 59 -19 208 -34 124 -12 205 -24 207 -31 2 -6 -8
-99 -22 -205 -39 -301 -27 -266 -91 -274 -58 -7 -60 -9 -43 -68 6 -22 8 -41 6
-44 -3 -2 -44 17 -91 42 l-86 47 -235 -27 c-130 -14 -239 -24 -244 -21 -4 3
-11 43 -15 88 -13 157 -18 188 -33 188 -9 0 -12 -8 -9 -22 3 -13 11 -80 17
-151 6 -70 15 -129 18 -132 4 -2 117 8 250 23 l244 27 110 -58 c60 -32 112
-56 114 -53 3 3 -2 32 -11 64 -9 32 -16 61 -16 64 0 3 20 8 45 11 26 2 49 7
52 11 11 10 73 510 65 517 -4 4 -83 15 -177 23 -93 9 -192 19 -219 22 -38 5
-47 3 -44 -7z"/>
<path d="M1230 6128 c0 -11 17 -17 62 -22 34 -3 63 -8 65 -10 4 -4 -10 -127
-23 -203 -3 -24 -1 -33 9 -33 10 0 18 34 30 127 19 144 19 143 -53 143 -25 0
-55 3 -67 6 -16 5 -23 2 -23 -8z"/>
<path d="M3140 6094 c0 -4 18 -27 41 -51 51 -55 69 -98 69 -163 0 -54 15 -67
25 -22 13 61 -35 177 -91 221 -27 21 -44 27 -44 15z"/>
<path d="M6847 6093 c-19 -18 3 -23 111 -23 131 0 155 -8 189 -59 21 -31 23
-45 23 -170 0 -226 -16 -241 -267 -241 l-162 0 -32 -60 c-17 -33 -35 -60 -39
-60 -4 0 -22 27 -39 60 l-32 60 -162 0 c-134 0 -168 3 -197 18 -51 25 -70 71
-70 165 0 44 -4 77 -10 77 -17 0 -12 -176 5 -211 32 -61 61 -69 246 -69 l165
0 43 -75 c23 -41 46 -75 51 -75 5 0 28 34 51 75 l43 75 165 0 c147 0 170 2
198 20 58 35 65 61 61 250 -3 164 -4 169 -28 196 -41 44 -79 54 -198 54 -60 0
-112 -3 -115 -7z"/>
<path d="M1320 5780 c0 -16 5 -30 10 -30 6 0 10 3 10 8 0 4 3 17 6 30 5 16 2
22 -10 22 -11 0 -16 -9 -16 -30z"/>
<path d="M7096 5803 c-3 -3 -6 -27 -6 -53 0 -25 -5 -51 -12 -58 -7 -7 -40 -12
-80 -12 -54 0 -68 -3 -68 -15 0 -12 14 -15 70 -15 62 0 74 3 95 25 20 19 25
34 25 74 0 47 -9 68 -24 54z"/>
<path d="M3213 5770 c-9 -13 -9 -21 -2 -26 11 -7 40 26 33 38 -8 13 -19 9 -31
-12z"/>
<path d="M6830 5665 c0 -12 7 -15 25 -13 14 2 26 8 26 13 0 6 -12 11 -26 13
-18 2 -25 -1 -25 -13z"/>
<path d="M3876 5628 c-34 -48 -7 -108 47 -108 38 0 50 7 66 38 23 44 -10 92
-64 92 -24 0 -39 -7 -49 -22z m75 -8 c26 -14 25 -56 -2 -70 -41 -23 -80 20
-53 58 17 25 27 27 55 12z"/>
<path d="M5188 5387 c-74 -32 -129 -76 -168 -137 -85 -132 -80 -304 11 -430
35 -49 35 -49 -64 -96 -31 -15 -56 -33 -54 -38 5 -16 406 -20 482 -6 33 7 77
21 99 32 66 34 141 112 172 181 25 53 29 74 29 152 0 77 -4 98 -27 147 -35 76
-104 148 -175 184 -50 25 -71 29 -153 32 -81 2 -103 -1 -152 -21z m274 -25
c62 -27 143 -104 176 -167 24 -44 27 -61 27 -150 0 -90 -3 -105 -28 -153 -37
-70 -97 -128 -166 -161 -54 -25 -62 -26 -271 -29 l-215 -3 30 21 c16 11 42 25
57 31 36 15 35 23 -3 67 -87 99 -110 248 -58 362 45 98 118 162 222 196 58 19
170 12 229 -14z"/>
<path d="M5240 5331 c-79 -24 -160 -101 -190 -178 -10 -28 -16 -53 -13 -57 13
-12 22 -5 28 23 16 75 95 156 177 185 53 18 51 43 -2 27z"/>
<path d="M5164 5056 c-8 -21 3 -36 27 -36 15 0 20 6 17 22 -4 27 -35 37 -44
14z"/>
<path d="M5304 5055 c-8 -20 4 -35 27 -35 14 0 19 7 19 25 0 18 -5 25 -20 25
-11 0 -23 -7 -26 -15z"/>
<path d="M5444 5055 c-4 -9 -2 -21 4 -27 16 -16 47 -5 47 17 0 26 -42 34 -51
10z"/>
<path d="M2985 5297 c-3 -7 -4 -102 -3 -212 l3 -200 171 -5 170 -5 56 -47 c30
-27 60 -48 67 -48 7 0 11 19 11 50 l0 49 123 3 122 3 0 210 0 210 -358 3
c-285 2 -359 0 -362 -11z m695 -202 l0 -184 -122 -3 -123 -3 -3 -37 c-2 -21
-6 -38 -8 -38 -3 0 -27 18 -53 40 l-47 40 -162 0 -162 0 0 185 0 185 340 0
340 0 0 -185z"/>
<path d="M3057 5234 c-4 -4 -7 -41 -7 -81 0 -55 3 -74 13 -71 7 3 13 28 15 66
l3 62 40 0 c28 0 39 4 37 13 -5 13 -89 22 -101 11z"/>
<path d="M3182 5108 c-15 -18 1 -41 24 -36 23 4 26 41 3 46 -9 1 -21 -3 -27
-10z"/>
<path d="M3327 5114 c-4 -4 -7 -16 -7 -26 0 -13 7 -18 26 -18 21 0 25 4 22 22
-3 23 -27 35 -41 22z"/>
<path d="M3464 5106 c-8 -21 3 -36 27 -36 15 0 20 6 17 22 -4 27 -35 37 -44
14z"/>
<path d="M0 5235 c0 -13 49 -15 384 -15 212 0 387 -3 389 -7 6 -10 -79 -718
-87 -732 -5 -7 -76 -11 -219 -11 l-212 0 -55 -90 c-30 -49 -58 -90 -62 -90 -3
0 -32 41 -63 90 -52 82 -75 107 -75 80 0 -18 132 -220 140 -215 4 3 37 50 71
105 l64 100 205 0 c113 0 212 4 219 9 11 7 26 100 57 353 50 402 51 414 25
428 -13 6 -157 10 -400 10 -332 0 -381 -2 -381 -15z"/>
<path d="M6886 5231 c-15 -17 -14 -40 28 -385 25 -202 50 -374 57 -382 9 -11
52 -14 220 -14 133 0 209 4 209 10 0 6 -73 10 -199 10 -147 0 -201 3 -209 13
-9 11 -92 651 -92 712 l0 25 250 0 c216 0 250 2 250 15 0 13 -34 15 -248 15
-230 0 -250 -1 -266 -19z"/>
<path d="M6950 5158 c1 -48 36 -308 43 -314 17 -17 18 12 3 133 -23 190 -29
173 59 173 60 0 75 3 75 15 0 12 -17 15 -90 15 -87 0 -90 -1 -90 -22z"/>
<path d="M1372 5112 c-9 -7 -12 -73 -10 -298 l3 -289 579 -3 c319 -1 583 1
588 6 4 4 -19 31 -52 60 l-60 53 0 234 c0 203 -2 234 -16 239 -24 9 -1017 7
-1032 -2z m1028 -257 l0 -234 40 -32 c22 -18 40 -36 40 -41 0 -4 -246 -7 -547
-6 l-548 3 -3 273 -2 272 510 0 510 0 0 -235z"/>
<path d="M1430 4960 c0 -97 18 -107 22 -12 l3 67 158 3 c217 4 207 22 -13 22
l-170 0 0 -80z"/>
<path d="M1620 4925 c0 -13 9 -16 48 -13 26 2 47 8 47 13 0 6 -21 11 -47 13
-39 3 -48 0 -48 -13z"/>
<path d="M1795 4930 c-3 -6 0 -12 7 -15 25 -10 358 0 361 10 3 14 -359 19
-368 5z"/>
<path d="M1622 4818 c4 -10 69 -14 271 -16 233 -2 267 0 267 13 0 13 -35 15
-271 15 -212 0 -270 -3 -267 -12z"/>
<path d="M1620 4710 c0 -6 75 -10 205 -10 130 0 205 4 205 10 0 6 -75 10 -205
10 -130 0 -205 -4 -205 -10z"/>
<path d="M5768 5069 c-43 -16 -35 -33 10 -23 20 5 71 9 112 8 98 -1 169 -33
239 -109 70 -77 94 -146 89 -250 -5 -88 -25 -139 -84 -211 -38 -47 -38 -47 36
-85 l45 -24 -202 -3 c-186 -2 -206 -1 -260 19 -103 39 -191 144 -217 262 -10
45 -29 33 -22 -15 17 -107 117 -227 224 -270 53 -21 76 -23 301 -26 148 -2
247 0 253 6 6 6 -18 25 -69 52 -43 24 -80 45 -82 46 -2 2 9 17 23 35 119 141
109 358 -23 489 -81 80 -134 103 -251 107 -52 1 -107 -2 -122 -8z"/>
<path d="M3750 4990 c0 -6 97 -10 270 -10 l270 0 0 -295 0 -295 -87 0 -88 0
-72 -72 -73 -72 0 72 0 72 -370 0 -370 0 0 225 c0 143 -4 225 -10 225 -6 0
-10 -85 -10 -234 0 -204 2 -235 16 -240 9 -3 175 -6 370 -6 l355 0 -2 -77 c-1
-42 2 -78 7 -80 5 -2 45 33 89 77 l80 80 88 0 c85 0 88 1 97 26 11 27 14 572
4 598 -5 14 -40 16 -285 16 -179 0 -279 -4 -279 -10z"/>
<path d="M42 4848 c2 -15 10 -23 23 -23 13 0 21 8 23 23 3 18 -1 22 -23 22
-22 0 -26 -4 -23 -22z"/>
<path d="M184 4859 c-3 -6 1 -18 10 -27 15 -15 17 -15 32 0 19 19 11 38 -16
38 -10 0 -22 -5 -26 -11z"/>
<path d="M332 4848 c2 -15 10 -23 23 -23 13 0 21 8 23 23 3 18 -1 22 -23 22
-22 0 -26 -4 -23 -22z"/>
<path d="M7294 4859 c-3 -6 1 -18 9 -27 13 -12 19 -13 31 -3 8 7 12 19 9 27
-6 17 -39 19 -49 3z"/>
<path d="M4220 4695 c0 -97 4 -155 10 -155 6 0 10 58 10 155 0 97 -4 155 -10
155 -6 0 -10 -58 -10 -155z"/>
<path d="M3615 4800 c-3 -6 0 -12 7 -15 26 -10 423 0 421 10 -4 14 -419 19
-428 5z"/>
<path d="M5717 4734 c-4 -4 -7 -16 -7 -26 0 -14 6 -19 23 -16 14 2 22 10 22
23 0 20 -25 32 -38 19z"/>
<path d="M5854 4726 c-8 -21 3 -36 27 -36 15 0 20 6 17 22 -4 27 -35 37 -44
14z"/>
<path d="M5994 4725 c-8 -19 3 -35 26 -35 19 0 30 17 23 38 -6 17 -42 15 -49
-3z"/>
<path d="M6159 4730 c0 -3 -7 -32 -15 -65 -8 -33 -17 -71 -20 -85 l-5 -25 20
23 c25 29 48 129 32 145 -6 6 -11 9 -12 7z"/>
<path d="M647 4703 c-3 -5 -8 -40 -12 -80 l-7 -72 -101 -3 c-137 -4 -129 -22
12 -26 l109 -3 6 43 c17 124 18 148 8 148 -6 0 -13 -3 -15 -7z"/>
<path d="M3480 4685 c0 -13 34 -15 283 -13 179 2 282 7 282 13 0 6 -103 11
-282 13 -249 2 -283 0 -283 -13z"/>
<path d="M3480 4570 c0 -6 82 -10 225 -10 143 0 225 4 225 10 0 6 -82 10 -225
10 -143 0 -225 -4 -225 -10z"/>
<path d="M327 4544 c-11 -12 3 -24 29 -24 16 0 24 5 22 13 -5 13 -40 22 -51
11z"/>
<path d="M6076 4524 c-4 -9 -4 -19 -1 -22 6 -6 35 18 35 29 0 16 -28 10 -34
-7z"/>
<path d="M4220 4470 c0 -16 5 -30 10 -30 6 0 10 14 10 30 0 17 -4 30 -10 30
-5 0 -10 -13 -10 -30z"/>
<path d="M1367 4443 c-4 -3 -7 -57 -7 -119 l0 -113 -55 -47 c-30 -26 -55 -54
-55 -61 0 -11 106 -13 583 -11 l582 3 0 175 0 175 -521 3 c-286 1 -524 -1
-527 -5z m1033 -173 l0 -150 -550 -2 c-303 -2 -550 0 -550 3 0 3 18 20 40 38
l40 32 0 114 0 115 510 0 510 0 0 -150z"/>
<path d="M2330 4250 l0 -60 -105 0 c-87 0 -105 -3 -105 -15 0 -12 19 -15 115
-15 l115 0 0 75 c0 43 -4 75 -10 75 -6 0 -10 -27 -10 -60z"/>
<path d="M1673 4293 c-7 -3 -13 -13 -13 -23 0 -19 17 -30 38 -23 6 3 12 13 12
23 0 19 -17 30 -37 23z"/>
<path d="M1807 4293 c-11 -10 -8 -41 4 -49 6 -3 18 1 27 9 13 13 13 19 2 31
-14 17 -23 20 -33 9z"/>
<path d="M1940 4284 c-11 -12 -10 -18 3 -32 16 -15 18 -15 34 0 13 14 14 20 3
32 -7 9 -16 16 -20 16 -4 0 -13 -7 -20 -16z"/>
<path d="M2083 4293 c-19 -7 -16 -40 4 -47 21 -8 36 6 31 30 -3 19 -16 25 -35
17z"/>
<path d="M2027 4184 c-4 -4 -7 -11 -7 -16 0 -13 50 -6 53 7 2 12 -36 19 -46 9z"/>
<path d="M6400 4145 c-153 -31 -229 -77 -255 -156 -23 -68 -18 -233 8 -272 48
-73 180 -116 385 -124 l132 -6 0 -33 c0 -32 -2 -33 -47 -39 -154 -22 -259 -57
-330 -111 -64 -49 -94 -238 -58 -361 15 -52 62 -104 104 -118 12 -3 21 -11 21
-17 0 -21 -51 -98 -71 -109 -40 -21 -6 -32 57 -19 65 13 103 30 150 66 30 22
34 23 135 12 174 -17 403 13 514 69 51 26 85 65 100 117 27 91 15 236 -26 318
-39 76 -150 129 -315 150 l-94 12 0 46 c0 46 0 47 43 59 123 36 157 85 157
224 0 188 -54 252 -245 292 -90 18 -274 18 -365 0z m299 -15 c150 -19 227 -57
264 -130 18 -37 22 -62 22 -140 0 -139 -19 -165 -149 -210 l-51 -17 -3 -66 -3
-66 48 -6 c198 -24 273 -47 334 -102 51 -46 69 -107 69 -232 -1 -162 -38 -205
-217 -252 -93 -25 -322 -36 -428 -21 -66 9 -71 9 -95 -13 -28 -26 -80 -54
-122 -66 -15 -4 -28 -7 -28 -6 0 1 11 24 25 51 14 27 25 55 25 62 0 8 -17 22
-39 33 -81 42 -106 97 -105 231 2 139 29 192 123 240 70 35 154 57 249 66 l72
7 0 63 0 64 -127 0 c-145 0 -242 17 -320 56 -74 36 -87 64 -88 184 0 150 35
198 175 241 119 36 237 45 369 29z"/>
<path d="M6438 4080 c-70 -12 -149 -37 -185 -59 -34 -21 -53 -68 -53 -128 0
-50 17 -39 25 15 4 26 11 55 17 65 15 28 105 65 191 79 51 8 77 16 77 25 0 14
-3 14 -72 3z"/>
<path d="M6410 3885 c-25 -30 10 -61 38 -33 17 17 15 26 -7 37 -14 8 -22 7
-31 -4z"/>
<path d="M6550 3885 c-10 -12 -10 -18 0 -30 16 -19 39 -19 46 0 6 15 -11 45
-26 45 -4 0 -13 -7 -20 -15z"/>
<path d="M6702 3891 c-19 -11 -11 -45 11 -49 9 -2 20 4 23 13 9 21 -16 47 -34
36z"/>
<path d="M6510 3195 c-16 -19 -5 -47 17 -43 22 4 29 43 9 51 -8 3 -20 -1 -26
-8z"/>
<path d="M6941 3200 c-19 -11 -9 -45 14 -45 13 0 21 8 23 21 3 23 -17 37 -37
24z"/>
<path d="M6646 3191 c-10 -16 5 -41 24 -41 19 0 34 25 24 41 -3 5 -14 9 -24 9
-10 0 -21 -4 -24 -9z"/>
<path d="M6787 3186 c-7 -19 18 -40 39 -32 8 3 14 14 12 23 -4 22 -43 29 -51
9z"/>
<path d="M7105 3019 c-39 -24 -123 -49 -198 -57 -38 -5 -62 -12 -65 -21 -4
-12 6 -13 53 -7 123 14 252 60 263 94 5 17 -18 14 -53 -9z"/>
<path d="M6732 2939 c2 -6 7 -10 11 -10 4 1 16 1 27 1 11 0 20 5 20 10 0 6
-14 10 -31 10 -17 0 -29 -5 -27 -11z"/>
<path d="M4544 4107 c-10 -28 1 -190 14 -195 9 -3 12 20 12 92 l0 96 410 0
410 0 0 -159 0 -158 70 -47 c39 -25 70 -48 70 -51 0 -3 -31 -26 -70 -51 l-70
-47 0 -158 0 -159 -125 0 c-79 0 -125 -4 -125 -10 0 -7 48 -10 138 -8 l137 3
3 160 3 160 75 49 c41 27 74 55 72 62 -2 7 -34 35 -73 61 l-70 48 -5 160 -5
160 -433 3 c-354 2 -433 0 -438 -11z"/>
<path d="M4767 4044 c-19 -19 24 -24 219 -24 184 0 214 2 214 15 0 13 -30 15
-213 15 -118 0 -217 -3 -220 -6z"/>
<path d="M655 3999 c-250 -39 -448 -207 -486 -413 -43 -234 152 -477 429 -536
45 -10 49 -14 105 -101 31 -49 61 -87 67 -84 5 3 32 43 60 90 50 81 53 84 101
94 278 60 473 303 430 537 -25 134 -130 268 -266 341 -120 63 -304 94 -440 72z
m260 -34 c167 -35 320 -146 386 -281 31 -63 34 -76 34 -164 0 -86 -3 -101 -33
-164 -62 -132 -207 -242 -371 -280 -35 -8 -64 -16 -66 -18 -1 -2 -23 -36 -49
-75 -25 -40 -48 -73 -51 -73 -3 0 -26 33 -52 73 -25 39 -47 73 -49 75 -1 2
-30 10 -65 18 -164 38 -309 148 -371 280 -30 63 -33 78 -33 164 0 88 3 101 34
164 66 134 217 245 381 280 86 19 218 19 305 1z"/>
<path d="M605 3916 c-153 -37 -300 -152 -344 -268 -19 -49 7 -41 33 11 52 102
187 200 322 233 27 7 51 17 53 23 4 14 -9 14 -64 1z"/>
<path d="M531 3540 c-19 -11 -9 -45 14 -45 13 0 21 8 23 21 3 23 -17 37 -37
24z"/>
<path d="M683 3543 c-16 -6 -17 -39 -2 -49 6 -3 18 1 27 10 14 14 14 18 2 30
-8 7 -21 12 -27 9z"/>
<path d="M821 3537 c-16 -16 -14 -34 5 -41 21 -8 34 1 34 24 0 22 -23 33 -39
17z"/>
<path d="M971 3540 c-19 -11 -9 -45 14 -45 13 0 21 8 23 21 3 23 -17 37 -37
24z"/>
<path d="M1234 3378 c-32 -63 -112 -144 -177 -178 -26 -14 -47 -28 -47 -32 0
-38 157 64 206 133 35 50 64 103 64 119 0 25 -22 6 -46 -42z"/>
<path d="M938 3153 c-15 -4 -27 -33 -14 -33 19 0 56 22 51 30 -6 10 -9 11 -37
3z"/>
<path d="M2337 3923 c-11 -10 -8 -983 2 -983 5 0 55 48 111 107 l101 107 82
-3 c45 -1 244 -10 442 -20 263 -13 363 -15 372 -7 14 13 154 773 146 793 -4
11 -120 13 -627 13 -343 0 -626 -3 -629 -7z m1233 -20 c1 -23 -134 -749 -140
-756 -4 -4 -204 2 -445 13 l-438 22 -98 -98 -99 -99 0 456 c0 251 3 459 7 462
9 10 1213 9 1213 0z"/>
<path d="M2400 3730 c0 -165 18 -175 22 -12 l3 117 53 3 c75 4 65 22 -13 22
l-65 0 0 -130z"/>
<path d="M2694 3546 c-8 -21 3 -36 27 -36 15 0 20 6 17 22 -4 27 -35 37 -44
14z"/>
<path d="M2847 3554 c-4 -4 -7 -16 -7 -26 0 -14 6 -19 23 -16 14 2 22 10 22
23 0 20 -25 32 -38 19z"/>
<path d="M2984 3546 c-8 -21 3 -36 27 -36 15 0 20 6 17 22 -4 27 -35 37 -44
14z"/>
<path d="M3137 3554 c-4 -4 -7 -16 -7 -26 0 -14 6 -19 23 -16 14 2 22 10 22
23 0 20 -25 32 -38 19z"/>
<path d="M3406 3383 c-3 -10 -10 -49 -17 -88 -6 -38 -14 -73 -18 -76 -3 -3
-73 -2 -156 2 -132 8 -186 3 -158 -14 4 -3 83 -8 174 -12 l165 -7 17 98 c10
55 17 102 17 107 0 14 -19 7 -24 -10z"/>
<path d="M2920 3220 c0 -5 16 -10 35 -10 19 0 35 5 35 10 0 6 -16 10 -35 10
-19 0 -35 -4 -35 -10z"/>
<path d="M4227 3863 c-10 -9 -9 -861 1 -867 5 -3 56 31 115 74 l107 80 322 2
323 3 0 355 0 355 -431 3 c-237 1 -434 -1 -437 -5z m843 -354 l0 -329 -297 -1
c-164 -1 -308 -3 -319 -4 -12 -1 -57 -29 -100 -62 -44 -33 -85 -63 -91 -67
-10 -6 -13 76 -13 393 l0 401 403 2 c221 2 405 2 410 0 4 -2 7 -151 7 -333z"/>
<path d="M4300 3650 c0 -93 4 -150 10 -150 6 0 10 52 10 135 l0 135 66 0 c48
0 65 3 62 13 -3 8 -30 13 -76 15 l-72 3 0 -151z"/>
<path d="M4490 3525 c-11 -13 -11 -19 3 -32 21 -21 49 -9 45 19 -4 28 -30 35
-48 13z"/>
<path d="M4636 3524 c-9 -22 17 -49 39 -40 10 3 15 15 13 28 -4 29 -42 37 -52
12z"/>
<path d="M4784 3525 c-8 -21 2 -45 19 -45 20 0 40 27 33 45 -7 19 -45 20 -52
0z"/>
<path d="M5320 3471 l0 -120 -27 -3 c-41 -5 -29 -23 15 -23 l37 0 0 129 c0 95
-3 130 -12 134 -10 3 -13 -25 -13 -117z"/>
<path d="M5175 3340 c-8 -13 20 -24 41 -16 20 8 9 26 -16 26 -10 0 -22 -5 -25
-10z"/>
<path d="M1165 2977 c-3 -7 -4 -147 -3 -312 l3 -300 76 -3 76 -3 17 -79 c10
-45 23 -80 29 -80 7 0 41 36 77 80 l65 80 306 0 c271 0 308 2 313 16 3 9 6
145 6 303 0 210 -3 290 -12 299 -18 18 -947 17 -953 -1z m935 -307 l0 -290
-307 -1 -308 0 -55 -68 c-32 -39 -58 -63 -61 -57 -4 6 -12 37 -19 69 l-11 57
-75 0 -74 0 0 290 0 290 455 0 455 0 0 -290z"/>
<path d="M1234 2907 c-9 -24 1 -237 11 -237 6 0 11 45 13 110 l3 110 49 0 c38
0 50 4 50 15 0 20 -118 22 -126 2z"/>
<path d="M1406 2684 c-8 -21 1 -34 24 -34 10 0 21 4 24 9 10 16 -5 41 -24 41
-10 0 -21 -7 -24 -16z"/>
<path d="M1552 2688 c-15 -18 1 -41 24 -36 23 4 26 41 3 46 -9 1 -21 -3 -27
-10z"/>
<path d="M1697 2694 c-4 -4 -7 -16 -7 -26 0 -13 7 -18 26 -18 21 0 25 4 22 22
-3 23 -27 35 -41 22z"/>
<path d="M1834 2686 c-8 -21 3 -36 27 -36 15 0 20 6 17 22 -4 27 -35 37 -44
14z"/>
<path d="M5520 2904 c-19 -8 -42 -22 -52 -31 -16 -14 -22 -14 -70 7 -99 43
-203 7 -248 -84 -13 -27 -29 -46 -38 -46 -100 0 -192 -93 -192 -192 0 -47 27
-115 54 -137 16 -13 15 -16 -8 -40 -14 -14 -30 -39 -35 -54 -27 -71 2 -176 60
-218 25 -17 27 -23 18 -41 -17 -31 -13 -105 8 -140 46 -78 164 -91 227 -23
l23 24 39 -20 c54 -28 138 -23 191 13 l38 25 34 -23 c77 -52 180 -39 246 31
34 36 44 42 72 38 67 -10 161 47 189 114 20 46 17 113 -6 157 l-19 38 29 37
c65 82 59 183 -16 258 -35 35 -44 51 -44 79 0 127 -131 224 -248 183 -28 -10
-35 -8 -62 15 -54 45 -129 57 -190 30z m133 -25 c12 -6 34 -23 49 -36 24 -23
30 -24 59 -14 49 17 107 13 148 -10 57 -32 75 -64 79 -141 3 -54 8 -68 22 -73
30 -10 78 -72 86 -110 10 -57 -4 -103 -46 -148 -38 -42 -38 -42 -19 -66 51
-62 44 -156 -16 -216 -38 -37 -83 -51 -143 -43 -33 5 -39 2 -57 -26 -59 -90
-189 -104 -259 -27 l-19 21 -33 -30 c-65 -57 -144 -60 -216 -9 -20 15 -33 19
-36 11 -9 -29 -46 -62 -78 -71 -50 -14 -102 5 -131 48 -28 41 -29 86 -4 128
l20 31 -39 26 c-89 59 -101 174 -26 249 l33 33 -33 36 c-18 20 -37 53 -43 74
-27 99 55 204 159 204 30 0 42 5 46 18 13 46 42 89 74 110 46 31 141 28 185
-6 28 -22 28 -22 49 -3 51 48 138 66 189 40z"/>
<path d="M5543 2835 c-38 -16 -46 -42 -10 -30 30 11 88 11 110 1 12 -6 17 -4
17 7 0 10 -15 20 -37 26 -46 13 -41 13 -80 -4z"/>
<path d="M5030 2641 c-35 -34 -46 -71 -34 -113 16 -55 33 -45 27 15 -5 53 -5
55 31 83 20 16 36 32 36 37 0 17 -34 5 -60 -22z"/>
<path d="M5284 2399 c-8 -14 21 -43 35 -35 19 12 13 46 -8 46 -11 0 -23 -5
-27 -11z"/>
<path d="M5430 2391 c0 -27 19 -36 37 -18 18 18 9 37 -18 37 -12 0 -19 -7 -19
-19z"/>
<path d="M5572 2388 c2 -15 10 -23 23 -23 30 0 27 39 -3 43 -20 3 -23 0 -20
-20z"/>
<path d="M5713 2394 c-6 -17 14 -36 32 -31 6 2 11 13 13 25 3 17 -2 22 -18 22
-11 0 -23 -7 -27 -16z"/>
<path d="M5988 2245 c-3 -3 -4 -24 -1 -46 4 -24 1 -50 -7 -65 -16 -29 -5 -44
16 -22 22 22 29 98 12 121 -7 10 -16 15 -20 12z"/>
<path d="M5890 2081 c0 -15 16 -22 34 -15 25 9 19 24 -9 24 -14 0 -25 -4 -25
-9z"/>
<path d="M3012 2788 c-14 -14 -18 -813 -4 -822 5 -3 54 28 110 69 l101 75 306
0 305 0 -2 343 -3 342 -400 3 c-303 2 -404 -1 -413 -10z m796 -335 l-3 -318
-303 -3 -304 -2 -78 -60 c-43 -33 -81 -60 -84 -60 -3 0 -6 171 -6 380 l0 380
390 0 390 0 -2 -317z"/>
<path d="M3070 2610 c0 -91 3 -110 15 -110 12 0 15 18 15 100 l0 100 84 0 c47
0 88 5 91 10 4 6 -32 10 -99 10 l-106 0 0 -110z"/>
<path d="M3217 2574 c-14 -14 6 -24 49 -24 32 0 44 4 44 15 0 11 -11 15 -43
15 -24 0 -47 -3 -50 -6z"/>
<path d="M3400 2565 c0 -12 19 -15 110 -15 91 0 110 3 110 15 0 12 -19 15
-110 15 -91 0 -110 -3 -110 -15z"/>
<path d="M3210 2450 c0 -6 75 -10 205 -10 130 0 205 4 205 10 0 6 -75 10 -205
10 -130 0 -205 -4 -205 -10z"/>
<path d="M3210 2340 c0 -6 53 -10 140 -10 87 0 140 4 140 10 0 6 -53 10 -140
10 -87 0 -140 -4 -140 -10z"/>
<path d="M2164 2699 c-5 -9 36 -29 60 -29 30 0 159 -74 200 -115 67 -67 91
-125 91 -215 -1 -84 -20 -132 -81 -200 l-35 -38 12 -66 c7 -36 10 -68 7 -72
-3 -3 -38 11 -77 30 l-70 36 -58 -15 c-74 -20 -221 -20 -296 0 -157 41 -279
151 -303 274 -4 17 -12 30 -18 28 -33 -11 36 -159 101 -217 124 -109 314 -153
498 -115 l74 16 80 -41 c82 -41 117 -50 108 -27 -2 6 -10 44 -17 84 l-13 71
36 44 c148 180 86 414 -137 523 -78 38 -153 58 -162 44z"/>
<path d="M0 2575 c0 -13 7 -15 35 -9 48 9 126 -12 173 -47 84 -62 116 -190 71
-289 -13 -28 -66 -91 -149 -175 -72 -72 -130 -137 -130 -145 0 -22 278 258
303 305 31 57 30 173 0 231 -29 54 -101 117 -151 132 -60 18 -152 16 -152 -3z"/>
<path d="M6842 2564 c-93 -46 -142 -127 -142 -234 0 -88 24 -136 111 -225 l70
-73 -19 -64 c-22 -71 -38 -178 -27 -178 4 0 25 18 46 40 21 21 57 49 80 61
l42 21 103 -103 104 -104 95 95 c52 52 95 101 95 110 0 8 -39 -25 -88 -73 -48
-48 -92 -87 -97 -87 -5 0 -53 44 -107 97 l-97 97 -51 -24 c-27 -13 -57 -32
-67 -42 -9 -10 -20 -18 -25 -18 -10 0 -8 9 24 113 l21 69 -75 76 c-96 97 -112
128 -112 212 0 137 96 234 234 235 77 0 128 -25 200 -99 24 -25 49 -46 55 -46
6 0 33 23 60 51 28 28 67 59 88 70 20 11 37 24 37 29 0 29 -81 -14 -139 -74
l-44 -45 -60 54 c-98 89 -212 110 -315 59z"/>
<path d="M3877 2554 c-19 -20 26 -24 244 -24 l239 0 0 -380 c0 -209 -2 -380
-5 -380 -3 0 -42 27 -87 60 l-82 60 -303 0 -303 0 0 91 c0 68 -3 90 -12 87
-14 -5 -23 -135 -13 -175 l5 -23 305 0 305 0 101 -75 c55 -41 105 -73 110 -69
14 9 12 807 -3 822 -9 9 -79 12 -253 12 -133 0 -245 -3 -248 -6z"/>
<path d="M2340 2544 c0 -4 20 -28 44 -54 48 -51 69 -108 64 -169 -2 -20 2 -36
7 -36 14 0 18 94 6 136 -12 41 -85 129 -107 129 -8 0 -14 -3 -14 -6z"/>
<path d="M6872 2499 c-45 -23 -86 -73 -97 -121 -11 -44 12 -34 33 15 11 23 28
50 40 60 32 29 92 46 140 40 26 -4 42 -2 42 5 0 29 -100 30 -158 1z"/>
<path d="M367 2394 c-13 -14 5 -23 32 -18 41 9 130 -20 173 -56 78 -65 105
-189 60 -281 -12 -24 -54 -77 -95 -117 l-73 -73 23 -67 c12 -37 23 -77 23 -90
l0 -23 -33 25 c-18 14 -50 33 -72 41 l-38 17 -101 -101 -101 -101 -80 80 c-58
58 -81 76 -83 64 -4 -17 143 -174 163 -174 5 0 55 46 111 101 l102 102 45 -26
c24 -15 58 -42 75 -62 42 -48 55 -46 47 8 -9 60 -33 156 -44 175 -7 13 6 33
63 92 85 89 108 134 114 218 4 55 1 71 -27 127 -34 68 -81 110 -150 133 -36
13 -123 16 -134 6z"/>
<path d="M4290 2235 c0 -97 4 -155 10 -155 6 0 10 58 10 155 0 97 -4 155 -10
155 -6 0 -10 -58 -10 -155z"/>
<path d="M537 2274 c-4 -4 4 -21 16 -38 32 -45 31 -148 -1 -193 -12 -17 -18
-34 -14 -37 23 -14 72 80 72 136 -1 55 -54 151 -73 132z"/>
<path d="M2416 2231 c-13 -15 -16 -25 -9 -32 13 -13 36 14 31 37 -3 14 -6 13
-22 -5z"/>
<path d="M3 2214 c-3 -8 -1 -20 5 -26 16 -16 42 -2 42 22 0 24 -38 28 -47 4z"/>
<path d="M6974 2215 c-8 -19 3 -35 26 -35 19 0 34 25 24 41 -8 14 -44 10 -50
-6z"/>
<path d="M7117 2217 c-8 -21 8 -39 29 -35 27 5 25 42 -2 46 -12 2 -24 -3 -27
-11z"/>
<path d="M7262 2208 c2 -15 10 -23 23 -23 30 0 27 39 -3 43 -20 3 -23 0 -20
-20z"/>
<path d="M4296 2033 c-9 -10 -7 -53 3 -53 11 0 21 49 11 55 -4 2 -10 2 -14 -2z"/>
<path d="M475 1960 c-25 -27 -10 -39 16 -13 12 11 17 23 11 27 -5 3 -17 -3
-27 -14z"/>
<path d="M4906 1864 c-22 -21 -20 -77 2 -97 25 -22 75 -21 95 1 22 25 21 75
-1 95 -23 21 -76 22 -96 1z m76 -21 c10 -9 18 -21 18 -26 0 -15 -31 -47 -46
-47 -17 0 -44 28 -44 45 0 16 27 45 42 45 6 0 20 -7 30 -17z"/>
<path d="M7330 1757 c0 -7 16 -28 35 -47 30 -30 35 -31 35 -14 0 11 -13 32
-28 47 -31 30 -42 33 -42 14z"/>
<path d="M806 1744 c-8 -20 -8 -378 0 -398 6 -14 71 -16 634 -16 371 0 631 4
634 9 4 5 -32 44 -79 87 l-84 77 -3 126 -3 126 -546 3 c-492 2 -547 1 -553
-14z m1038 -10 l46 -7 0 -121 0 -121 65 -58 c36 -32 65 -62 65 -68 0 -6 -225
-8 -592 -7 l-593 3 -3 187 c-2 171 -1 187 15 191 28 7 944 8 997 1z"/>
<path d="M880 1625 c0 -37 4 -65 10 -65 6 0 10 22 10 50 l0 49 85 3 c116 4
109 22 -10 26 l-95 3 0 -66z"/>
<path d="M1124 1555 c-4 -9 -2 -21 4 -27 15 -15 44 -1 40 19 -4 23 -36 29 -44
8z"/>
<path d="M1264 1555 c-8 -20 4 -35 27 -35 14 0 19 7 19 25 0 18 -5 25 -20 25
-11 0 -23 -7 -26 -15z"/>
<path d="M1404 1555 c-8 -19 3 -35 26 -35 19 0 30 17 23 38 -6 17 -42 15 -49
-3z"/>
<path d="M1547 1557 c-8 -21 8 -39 29 -35 27 5 25 42 -2 46 -12 2 -24 -3 -27
-11z"/>
<path d="M5717 1643 c-4 -3 -7 -140 -7 -303 0 -217 3 -299 12 -308 7 -7 40
-12 80 -12 l67 0 10 -37 c5 -21 13 -56 18 -77 5 -22 13 -41 18 -42 6 -2 39 33
74 77 l65 79 300 0 c166 0 307 4 314 8 9 7 12 76 10 313 l-3 304 -476 3 c-261
1 -479 -1 -482 -5z m933 -303 l0 -290 -302 0 -303 0 -60 -72 -59 -72 -12 44
c-7 25 -15 57 -18 73 -6 27 -8 27 -81 27 l-75 0 0 290 0 290 455 0 455 0 0
-290z"/>
<path d="M5790 1425 c0 -97 4 -155 10 -155 6 0 10 55 10 145 l0 145 50 0 c28
0 50 5 50 10 0 6 -27 10 -60 10 l-60 0 0 -155z"/>
<path d="M5940 1450 c0 -5 23 -10 50 -10 28 0 50 5 50 10 0 6 -22 10 -50 10
-27 0 -50 -4 -50 -10z"/>
<path d="M6130 1450 c0 -6 60 -10 160 -10 100 0 160 4 160 10 0 6 -60 10 -160
10 -100 0 -160 -4 -160 -10z"/>
<path d="M5940 1340 c0 -6 92 -10 255 -10 163 0 255 4 255 10 0 6 -92 10 -255
10 -163 0 -255 -4 -255 -10z"/>
<path d="M5947 1234 c-19 -19 21 -24 184 -24 152 0 179 2 179 15 0 13 -26 15
-178 15 -98 0 -182 -3 -185 -6z"/>
<path d="M2420 1532 l-23 -18 45 -373 c25 -205 50 -377 56 -383 6 -6 93 -10
218 -11 l209 -2 62 -94 c34 -51 66 -98 71 -103 7 -7 32 22 76 90 l65 101 211
3 c180 3 213 5 223 19 7 9 32 182 56 384 l44 369 -23 18 c-21 17 -58 18 -645
18 -588 0 -624 -1 -645 -18z m1276 -22 c7 -7 -4 -127 -33 -362 -23 -193 -45
-358 -47 -365 -4 -10 -51 -13 -218 -13 l-213 0 -59 -95 c-32 -52 -60 -95 -61
-95 -1 0 -28 43 -61 95 l-58 95 -216 2 -215 3 -8 50 c-18 115 -82 674 -79 684
5 15 1253 16 1268 1z"/>
<path d="M2480 1444 c0 -33 30 -284 36 -303 3 -9 8 -11 14 -5 6 6 3 65 -8 157
-10 81 -16 150 -13 152 2 3 37 5 78 5 42 0 73 4 73 10 0 6 -37 10 -90 10 l-90
0 0 -26z"/>
<path d="M2824 1155 c-4 -9 -2 -21 4 -27 15 -15 44 -1 40 19 -4 23 -36 29 -44
8z"/>
<path d="M2970 1145 c0 -22 4 -26 23 -23 14 2 22 10 22 23 0 13 -8 21 -22 23
-19 3 -23 -1 -23 -23z"/>
<path d="M3114 1155 c-8 -20 4 -35 27 -35 14 0 19 7 19 25 0 18 -5 25 -20 25
-11 0 -23 -7 -26 -15z"/>
<path d="M3264 1155 c-4 -9 -2 -21 4 -27 15 -15 44 -1 40 19 -4 23 -36 29 -44
8z"/>
<path d="M3575 998 c-2 -7 -8 -44 -12 -83 l-8 -70 -102 -3 c-142 -4 -132 -22
11 -22 l114 0 6 58 c4 31 9 74 12 95 4 24 2 37 -5 37 -7 0 -14 -6 -16 -12z"/>
<path d="M3250 830 c0 -5 14 -10 30 -10 17 0 30 5 30 10 0 6 -13 10 -30 10
-16 0 -30 -4 -30 -10z"/>
<path d="M4413 1531 c-228 -84 -315 -358 -178 -561 19 -29 35 -53 35 -55 0 -2
-34 -22 -75 -44 -41 -23 -75 -46 -75 -51 0 -6 89 -10 234 -10 270 0 319 9 410
78 221 167 182 512 -72 630 -77 36 -202 41 -279 13z m250 -27 c61 -21 151
-102 184 -168 39 -74 44 -198 12 -281 -30 -81 -112 -164 -192 -193 -53 -20
-76 -22 -265 -22 l-207 1 58 30 c31 16 57 35 57 42 0 8 -12 24 -26 38 -37 33
-82 131 -89 194 -14 110 49 252 138 314 42 28 96 53 142 65 34 8 138 -2 188
-20z"/>
<path d="M4437 1462 c-85 -27 -187 -143 -187 -212 0 -34 16 -22 29 22 17 54
111 150 166 168 22 7 44 16 48 20 18 16 -10 17 -56 2z"/>
<path d="M4377 1204 c-12 -12 -8 -42 6 -47 21 -8 39 8 35 29 -3 19 -29 30 -41
18z"/>
<path d="M4513 1194 c-3 -8 2 -23 11 -32 15 -15 17 -15 33 0 13 14 14 20 3 32
-16 20 -39 20 -47 0z"/>
<path d="M4660 1194 c-11 -12 -10 -18 3 -32 16 -15 18 -15 33 0 19 18 12 48
-9 48 -8 0 -20 -7 -27 -16z"/>
<path d="M6720 1360 c0 -6 62 -10 175 -10 l175 0 0 -290 0 -290 -74 0 -73 0
-13 -62 c-7 -35 -16 -66 -19 -71 -4 -4 -33 24 -65 63 l-57 70 -305 0 -304 0 0
105 c0 58 -4 105 -9 105 -15 0 -16 -14 -11 -127 l5 -108 307 -3 307 -2 66 -80
c37 -44 70 -80 75 -80 5 0 16 36 26 80 l17 79 76 3 76 3 0 310 0 310 -187 3
c-123 2 -188 -1 -188 -8z"/>
<path d="M6880 1290 c0 -6 27 -10 60 -10 l60 0 2 -162 c2 -118 6 -162 16 -166
9 -3 12 36 12 172 l0 176 -75 0 c-43 0 -75 -4 -75 -10z"/>
<path d="M677 1233 c-4 -3 -7 -60 -7 -125 l0 -119 -85 -81 c-47 -44 -82 -84
-79 -89 3 -5 272 -9 628 -9 518 0 625 2 635 14 8 9 11 74 9 212 l-3 199 -546
3 c-300 1 -549 -1 -552 -5z m1073 -203 l0 -190 -597 0 -597 0 67 68 67 68 0
115 c0 64 3 119 7 122 3 4 242 7 530 7 l523 0 0 -190z"/>
<path d="M990 1044 c-11 -12 -10 -18 3 -32 16 -15 18 -15 34 0 13 14 14 20 3
32 -7 9 -16 16 -20 16 -4 0 -13 -7 -20 -16z"/>
<path d="M1131 1042 c-7 -13 -6 -23 1 -30 28 -28 63 3 38 33 -16 20 -27 19
-39 -3z"/>
<path d="M1281 1050 c-19 -11 -9 -45 14 -45 13 0 21 8 23 21 3 23 -17 37 -37
24z"/>
<path d="M1421 1050 c-19 -11 -9 -45 14 -45 13 0 21 8 23 21 3 23 -17 37 -37
24z"/>
<path d="M1680 961 l0 -51 -146 0 c-112 0 -145 -3 -141 -12 3 -10 43 -13 158
-13 l154 0 0 59 c0 39 -4 61 -12 64 -9 2 -13 -11 -13 -47z"/>
<path d="M1283 898 c2 -7 14 -13 27 -13 13 0 25 6 28 13 2 8 -7 12 -28 12 -21
0 -30 -4 -27 -12z"/>
<path d="M4983 1209 c-50 -15 -42 -33 10 -23 137 28 261 -9 347 -103 68 -74
93 -144 88 -248 -4 -90 -25 -145 -84 -214 -20 -23 -35 -43 -33 -45 2 -2 28
-16 57 -31 28 -16 52 -31 52 -34 0 -3 -98 -4 -217 -1 l-218 5 -53 30 c-30 16
-76 53 -103 82 -45 50 -56 73 -85 181 -2 6 -9 12 -15 12 -19 0 -1 -78 33 -142
38 -71 101 -131 176 -166 56 -27 61 -27 306 -30 150 -2 252 0 258 6 6 6 -19
25 -71 53 l-81 43 26 33 c14 18 37 59 52 91 22 48 26 71 26 142 0 153 -69 267
-202 332 -58 29 -78 33 -152 35 -47 1 -100 -2 -117 -8z"/>
<path d="M7006 903 c-12 -13 -6 -53 9 -53 9 0 15 9 15 24 0 26 -12 40 -24 29z"/>
<path d="M4927 874 c-12 -12 -8 -42 6 -47 21 -8 39 8 35 29 -3 19 -29 30 -41
18z"/>
<path d="M5063 864 c-3 -8 1 -22 9 -30 13 -14 17 -14 32 1 13 13 14 20 5 31
-15 19 -38 18 -46 -2z"/>
<path d="M5210 864 c-11 -12 -10 -18 3 -32 16 -15 18 -15 34 0 13 14 14 20 3
32 -7 9 -16 16 -20 16 -4 0 -13 -7 -20 -16z"/>
<path d="M5360 832 c0 -16 -7 -50 -16 -76 -16 -46 -13 -69 6 -50 9 9 40 117
40 141 0 7 -7 13 -15 13 -10 0 -15 -10 -15 -28z"/>
<path d="M5292 668 c-16 -16 -15 -28 3 -28 8 0 15 2 15 4 0 2 3 11 6 20 7 19
-7 21 -24 4z"/>
<path d="M1700 505 c-19 -9 -42 -23 -51 -31 -15 -14 -21 -13 -60 6 -93 48
-207 9 -254 -87 -18 -37 -25 -41 -65 -47 -59 -8 -115 -47 -141 -98 -31 -61
-24 -149 16 -206 17 -23 38 -42 48 -42 25 0 21 12 -13 45 -58 56 -65 146 -15
210 34 45 73 65 130 65 36 0 45 3 45 18 0 22 35 80 63 103 30 25 92 42 128 34
15 -4 45 -18 65 -31 l37 -25 26 24 c39 36 68 49 116 49 48 0 77 -13 117 -50
19 -17 32 -22 45 -17 74 30 133 22 188 -26 39 -35 58 -83 53 -138 -3 -35 1
-42 31 -63 51 -34 75 -82 75 -145 -1 -68 20 -67 24 1 4 61 -28 130 -75 159
-28 18 -33 27 -29 49 8 40 -20 120 -51 150 -53 51 -137 71 -197 48 -22 -8 -33
-5 -71 22 -54 38 -130 47 -185 23z"/>
<path d="M3990 430 l-85 -69 -340 -3 c-326 -3 -342 -4 -380 -25 -22 -12 -54
-36 -72 -55 -40 -41 -79 -126 -65 -140 7 -7 17 6 32 38 25 59 70 108 125 137
38 21 54 22 379 25 l339 3 67 55 c37 30 70 54 73 54 3 0 7 -25 9 -56 l3 -57
49 -14 c33 -10 63 -29 95 -61 57 -57 76 -114 68 -203 -4 -42 -2 -59 6 -56 17
5 30 67 23 120 -11 100 -85 192 -178 223 l-48 16 0 69 c0 38 -3 69 -7 69 -5
-1 -46 -32 -93 -70z"/>
<path d="M0 445 c0 -13 34 -15 245 -15 135 0 245 -4 245 -8 0 -4 -27 -34 -60
-67 l-60 -59 0 -148 c0 -125 2 -148 15 -148 13 0 15 23 15 148 l0 148 75 74
c40 40 72 77 69 82 -3 4 -126 8 -275 8 -232 0 -269 -2 -269 -15z"/>
<path d="M6955 445 c-50 -18 -100 -71 -114 -122 -6 -21 -11 -102 -11 -180 0
-121 2 -143 15 -143 13 0 15 24 15 159 0 148 1 160 23 192 12 18 38 44 56 56
33 22 42 23 247 23 184 0 214 2 214 15 0 13 -29 15 -202 15 -149 -1 -214 -5
-243 -15z"/>
<path d="M1723 436 c-38 -17 -46 -43 -10 -31 46 15 85 17 107 5 27 -14 39 -5
19 16 -22 22 -79 26 -116 10z"/>
<path d="M7047 380 c-82 -5 -91 -7 -113 -33 -23 -27 -24 -34 -24 -173 0 -89 4
-144 10 -144 6 0 10 52 10 136 l0 136 29 29 c28 27 34 29 110 29 45 0 81 4 81
9 0 15 -10 16 -103 11z"/>
<path d="M3350 280 c0 -6 78 -10 215 -10 137 0 215 4 215 10 0 6 -78 10 -215
10 -137 0 -215 -4 -215 -10z"/>
<path d="M4890 260 c-8 -15 -7 -51 4 -137 8 -63 18 -118 21 -121 14 -15 16 16
5 117 -7 60 -10 117 -7 126 6 13 77 15 630 15 488 0 627 -3 635 -12 6 -9 5
-47 -4 -118 -17 -133 -17 -130 -1 -130 20 0 45 244 27 265 -11 13 -93 15 -656
15 -636 0 -643 0 -654 -20z"/>
<path d="M1224 252 c-42 -33 -57 -99 -33 -143 16 -30 28 -13 17 24 -13 43 3
83 42 105 16 9 30 20 30 25 0 13 -35 7 -56 -11z"/>
<path d="M4964 143 c11 -111 18 -143 30 -143 9 0 10 14 5 52 -4 29 -8 72 -8
96 l-1 43 72 -2 c48 -2 73 2 76 9 3 9 -23 12 -89 12 l-92 0 7 -67z"/>
<path d="M3015 76 c-27 -13 -61 -35 -74 -50 -24 -25 -24 -26 -4 -26 11 0 26 7
34 16 7 8 31 25 53 37 40 21 52 22 446 25 223 2 424 0 447 -3 24 -3 66 -22 94
-41 28 -19 56 -34 63 -34 22 1 -77 80 -113 90 -22 6 -207 10 -466 10 l-430 0
-50 -24z"/>
<path d="M0 80 c0 -6 37 -10 91 -10 57 0 88 4 84 10 -8 13 -175 13 -175 0z"/>
<path d="M7050 80 c0 -5 23 -10 50 -10 28 0 50 5 50 10 0 6 -22 10 -50 10 -27
0 -50 -4 -50 -10z"/>
<path d="M7220 80 c0 -6 37 -10 90 -10 53 0 90 4 90 10 0 6 -37 10 -90 10 -53
0 -90 -4 -90 -10z"/>
<path d="M3050 14 c-24 -14 -23 -15 30 -10 30 3 67 6 83 6 15 0 27 5 27 10 0
16 -112 11 -140 -6z"/>
<path d="M1479 9 c-10 -6 -7 -9 14 -9 29 0 35 5 14 13 -8 3 -20 1 -28 -4z"/>
<path d="M1625 10 c-4 -6 3 -10 14 -10 25 0 27 6 6 13 -8 4 -17 2 -20 -3z"/>
<path d="M1765 10 c-3 -5 3 -10 15 -10 12 0 18 5 15 10 -3 6 -10 10 -15 10 -5
0 -12 -4 -15 -10z"/>
<path d="M1905 10 c-3 -5 3 -10 15 -10 12 0 18 5 15 10 -3 6 -10 10 -15 10 -5
0 -12 -4 -15 -10z"/>
</g>
</svg>
